# xmcd
#
# Track frame offsets:
#	150
#	15363
#	34749
#	46268
#	63923
#	75495
#	93390
#	113059
#	138700
#	162098
#	178541
#	190829
#	205412
#	219241
#	232243
#	245954
#	273560
#	290403
#	306747
#	335525
#
# Disc length: 4758 seconds
# Revision: 0
# Processed by: cddbd v1.5.2PL0 Copyright (c) Steve Scherf et al.
# Submitted via: dBpowerAMP V12.0
#
DISCID=28129414
DTITLE=Roland van Campenhout - Alle Veertig Goed
DYEAR=2012
DGENRE=Blues
TTITLE0=The Spider And The Fly
TTITLE1=Keep From Keeping On
TTITLE2=Do It
TTITLE3=Brick Blues
TTITLE4=Never Enough
TTITLE5=Going Down Slow
TTITLE6=Oorlogsgeleerden
TTITLE7=The Great Atomic Power
TTITLE8=Florida Handshake
TTITLE9=Rubber Burning
TTITLE10=Last Letter Home
TTITLE11=Bird In Pyjamas
TTITLE12=Plastic Jesus
TTITLE13=Dreaming My Dreams
TTITLE14=Moonlight Gambler
TTITLE15=Almost Home
TTITLE16=Too Late To Say She's Sorry
TTITLE17=That's Amore
TTITLE18=Chinese Swans
TTITLE19=Back To Coal
EXTD=
EXTT0=
EXTT1=
EXTT2=
EXTT3=
EXTT4=
EXTT5=
EXTT6=
EXTT7=
EXTT8=
EXTT9=
EXTT10=
EXTT11=
EXTT12=
EXTT13=
EXTT14=
EXTT15=
EXTT16=
EXTT17=
EXTT18=
EXTT19=
PLAYORDER=
